<svg xmlns="http://www.w3.org/2000/svg" xmlns:xlink="http://www.w3.org/1999/xlink" width="68" zoomAndPan="magnify" viewBox="0 0 50.879997 52.499999" height="70" preserveAspectRatio="xMidYMid meet" version="1.0"><defs><clipPath id="d818416ba4"><path d="M 0.179688 11.730469 L 50.582031 11.730469 L 50.582031 39.960938 L 0.179688 39.960938 Z M 0.179688 11.730469 " clip-rule="nonzero"/></clipPath></defs><g clip-path="url(#d818416ba4)"><path fill="#f41e1e" d="M 48.320312 22.035156 L 47.480469 22.035156 L 47.480469 19.414062 C 47.480469 17.964844 46.300781 16.785156 44.851562 16.785156 L 43.617188 16.785156 L 43.617188 14.457031 C 43.617188 12.957031 42.394531 11.734375 40.894531 11.734375 L 37.820312 11.734375 C 36.320312 11.734375 35.097656 12.957031 35.097656 14.457031 L 35.097656 22.035156 L 15.78125 22.035156 L 15.78125 14.457031 C 15.78125 12.957031 14.558594 11.734375 13.058594 11.734375 L 9.988281 11.734375 C 8.484375 11.734375 7.261719 12.957031 7.261719 14.457031 L 7.261719 16.785156 L 6.027344 16.785156 C 4.578125 16.785156 3.398438 17.964844 3.398438 19.414062 L 3.398438 22.035156 L 2.558594 22.035156 C 1.246094 22.035156 0.179688 23.101562 0.179688 24.414062 L 0.179688 27.582031 C 0.179688 28.894531 1.246094 29.960938 2.558594 29.960938 L 3.398438 29.960938 L 3.398438 32.582031 C 3.398438 34.03125 4.578125 35.210938 6.027344 35.210938 L 7.261719 35.210938 L 7.261719 37.539062 C 7.261719 39.039062 8.484375 40.261719 9.988281 40.261719 L 13.058594 40.261719 C 14.558594 40.261719 15.78125 39.039062 15.78125 37.539062 L 15.78125 29.960938 L 35.097656 29.960938 L 35.097656 37.539062 C 35.097656 39.039062 36.320312 40.261719 37.820312 40.261719 L 40.894531 40.261719 C 42.394531 40.261719 43.617188 39.039062 43.617188 37.539062 L 43.617188 35.210938 L 44.851562 35.210938 C 46.300781 35.210938 47.480469 34.03125 47.480469 32.582031 L 47.480469 29.960938 L 48.320312 29.960938 C 49.632812 29.960938 50.699219 28.894531 50.699219 27.582031 L 50.699219 24.414062 C 50.699219 23.101562 49.632812 22.035156 48.320312 22.035156 Z M 2.558594 28.375 C 2.121094 28.375 1.765625 28.019531 1.765625 27.582031 L 1.765625 24.414062 C 1.765625 23.976562 2.121094 23.621094 2.558594 23.621094 L 3.398438 23.621094 L 3.398438 28.375 Z M 6.027344 33.625 C 5.453125 33.625 4.984375 33.15625 4.984375 32.582031 L 4.984375 19.414062 C 4.984375 18.839844 5.453125 18.371094 6.027344 18.371094 L 7.261719 18.371094 L 7.261719 33.625 Z M 14.195312 37.539062 C 14.195312 38.164062 13.6875 38.675781 13.058594 38.675781 L 9.988281 38.675781 C 9.359375 38.675781 8.847656 38.164062 8.847656 37.539062 L 8.847656 14.457031 C 8.847656 13.828125 9.359375 13.316406 9.988281 13.316406 L 13.058594 13.316406 C 13.6875 13.316406 14.195312 13.828125 14.195312 14.457031 Z M 15.78125 28.375 L 15.78125 23.621094 L 35.097656 23.621094 L 35.097656 28.375 Z M 42.03125 37.539062 C 42.03125 38.164062 41.519531 38.675781 40.894531 38.675781 L 37.820312 38.675781 C 37.195312 38.675781 36.683594 38.164062 36.683594 37.539062 L 36.683594 14.457031 C 36.683594 13.828125 37.195312 13.316406 37.820312 13.316406 L 40.894531 13.316406 C 41.519531 13.316406 42.03125 13.828125 42.03125 14.457031 Z M 45.894531 32.582031 C 45.894531 33.15625 45.425781 33.625 44.851562 33.625 L 43.617188 33.625 L 43.617188 18.371094 L 44.851562 18.371094 C 45.425781 18.371094 45.894531 18.839844 45.894531 19.414062 Z M 49.113281 27.582031 C 49.113281 28.019531 48.757812 28.375 48.320312 28.375 L 47.480469 28.375 L 47.480469 23.621094 L 48.320312 23.621094 C 48.757812 23.621094 49.113281 23.976562 49.113281 24.414062 Z M 49.113281 27.582031 " fill-opacity="1" fill-rule="nonzero"/></g></svg>