<svg xmlns="http://www.w3.org/2000/svg" xmlns:xlink="http://www.w3.org/1999/xlink" width="68" zoomAndPan="magnify" viewBox="0 0 50.879997 52.499999" height="70" preserveAspectRatio="xMidYMid meet" version="1.0"><defs><clipPath id="cf420791e4"><path d="M 35.378906 14 L 50.582031 14 L 50.582031 45.710938 L 35.378906 45.710938 Z M 35.378906 14 " clip-rule="nonzero"/></clipPath><clipPath id="120fa5c694"><path d="M 0.179688 37 L 43 37 L 43 46 L 0.179688 46 Z M 0.179688 37 " clip-rule="nonzero"/></clipPath><clipPath id="6898fff2b4"><path d="M 3.933594 44.070312 L 11.863281 44.070312 L 11.863281 48.109375 L 3.933594 48.109375 Z M 3.933594 44.070312 " clip-rule="nonzero"/></clipPath><clipPath id="16f12e3fbc"><path d="M 30.730469 44.070312 L 38.660156 44.070312 L 38.660156 48.109375 L 30.730469 48.109375 Z M 30.730469 44.070312 " clip-rule="nonzero"/></clipPath></defs><path fill="#f41e1e" d="M 44.761719 5.875 L 40.558594 12.089844 L 39.90625 11.652344 L 40.558594 12.09375 C 40.410156 12.316406 40.164062 12.4375 39.914062 12.4375 L 26.25 13.371094 L 26.238281 13.671875 L 40.601562 14.171875 L 45.929688 6.636719 Z M 39.46875 10.894531 L 43.867188 4.386719 L 43.878906 4.367188 C 44.117188 4.003906 44.605469 3.898438 44.972656 4.136719 L 44.96875 4.140625 L 47.414062 5.734375 C 47.441406 5.75 47.46875 5.765625 47.496094 5.78125 C 47.851562 6.035156 47.933594 6.523438 47.683594 6.878906 L 47.679688 6.878906 L 41.683594 15.355469 C 41.542969 15.605469 41.273438 15.765625 40.96875 15.757812 L 40.96875 15.753906 L 25.46875 15.214844 C 25.449219 15.21875 25.429688 15.21875 25.410156 15.214844 C 24.972656 15.203125 24.632812 14.839844 24.644531 14.40625 L 24.648438 14.40625 L 24.699219 12.675781 C 24.675781 12.25 25 11.878906 25.429688 11.851562 L 25.484375 12.636719 L 25.433594 11.851562 L 39.46875 10.894531 " fill-opacity="1" fill-rule="nonzero"/><g clip-path="url(#cf420791e4)"><path fill="#f41e1e" d="M 35.679688 15.421875 L 35.640625 15.375 C 35.480469 15.226562 35.382812 15.011719 35.390625 14.773438 C 35.40625 14.339844 35.773438 14 36.207031 14.015625 L 36.207031 14.019531 L 39.855469 14.144531 C 40.066406 14.132812 40.28125 14.207031 40.445312 14.367188 L 40.441406 14.367188 C 53.050781 26.65625 50.488281 43.855469 50.316406 44.933594 C 50.277344 45.332031 49.941406 45.648438 49.53125 45.648438 L 46.4375 45.648438 C 46.011719 45.648438 45.664062 45.3125 45.648438 44.882812 L 46.4375 44.859375 L 45.652344 44.882812 L 45.605469 43.363281 C 45.601562 43.34375 45.601562 43.324219 45.601562 43.304688 L 45.601562 43.300781 C 44.898438 25.300781 38.09375 18.007812 35.679688 15.421875 Z M 38.011719 15.652344 C 41.070312 19.191406 46.539062 27.050781 47.171875 43.242188 L 47.175781 43.242188 C 47.175781 43.269531 47.175781 43.292969 47.171875 43.316406 L 47.199219 44.074219 L 48.847656 44.074219 C 49.246094 40.839844 50.3125 26.386719 39.558594 15.703125 L 38.011719 15.652344 " fill-opacity="1" fill-rule="nonzero"/></g><path fill="#f41e1e" d="M 41.488281 40.308594 L 46.269531 40.308594 C 46.699219 40.308594 47.050781 40.65625 47.054688 41.089844 C 47.078125 41.398438 47.097656 41.746094 47.121094 42.128906 C 47.121094 42.148438 47.125 42.167969 47.121094 42.183594 C 47.140625 42.507812 47.15625 42.859375 47.171875 43.242188 L 47.175781 43.242188 C 47.175781 43.269531 47.175781 43.292969 47.171875 43.316406 L 47.222656 44.835938 C 47.238281 45.269531 46.894531 45.632812 46.460938 45.648438 C 46.453125 45.648438 46.445312 45.648438 46.4375 45.648438 L 39.882812 45.648438 L 39.882812 44.074219 C 40.105469 44.074219 40.3125 43.980469 40.460938 43.832031 C 40.609375 43.679688 40.703125 43.476562 40.703125 43.253906 L 40.703125 41.097656 C 40.703125 40.664062 41.054688 40.308594 41.488281 40.308594 Z M 45.53125 41.886719 L 42.277344 41.886719 L 42.277344 43.253906 C 42.277344 43.539062 42.226562 43.816406 42.132812 44.074219 L 45.625 44.074219 L 45.605469 43.363281 C 45.601562 43.34375 45.601562 43.324219 45.601562 43.304688 L 45.601562 43.300781 C 45.589844 42.980469 45.574219 42.636719 45.554688 42.269531 C 45.550781 42.25 45.550781 42.234375 45.546875 42.214844 L 46.335938 42.171875 L 45.550781 42.210938 C 45.546875 42.105469 45.539062 41.996094 45.53125 41.886719 " fill-opacity="1" fill-rule="nonzero"/><g clip-path="url(#120fa5c694)"><path fill="#f41e1e" d="M 2.621094 38.539062 L 39.863281 37.75 L 39.863281 37.746094 C 39.878906 37.746094 39.890625 37.746094 39.90625 37.746094 L 39.914062 37.746094 C 40.558594 37.746094 41.144531 38.015625 41.574219 38.445312 C 41.992188 38.871094 42.257812 39.453125 42.273438 40.09375 C 42.277344 40.203125 42.277344 40.066406 42.277344 40.144531 L 42.277344 43.253906 C 42.277344 43.910156 42.007812 44.511719 41.574219 44.945312 C 41.140625 45.378906 40.539062 45.648438 39.882812 45.648438 L 2.636719 45.648438 C 1.976562 45.648438 1.378906 45.378906 0.945312 44.945312 C 0.511719 44.511719 0.242188 43.910156 0.242188 43.253906 L 0.242188 40.929688 C 0.242188 40.273438 0.507812 39.679688 0.941406 39.25 C 1.367188 38.820312 1.964844 38.550781 2.621094 38.539062 Z M 39.894531 39.320312 L 2.652344 40.105469 C 2.421875 40.113281 2.207031 40.207031 2.054688 40.363281 C 1.90625 40.507812 1.816406 40.707031 1.816406 40.929688 L 1.816406 43.253906 C 1.816406 43.476562 1.910156 43.679688 2.058594 43.832031 C 2.207031 43.980469 2.410156 44.074219 2.636719 44.074219 L 39.882812 44.074219 C 40.105469 44.074219 40.3125 43.980469 40.460938 43.832031 C 40.609375 43.679688 40.703125 43.476562 40.703125 43.253906 L 40.703125 40.144531 C 40.703125 40.078125 40.703125 40.125 40.703125 40.144531 L 40.703125 40.125 C 40.699219 39.90625 40.605469 39.703125 40.460938 39.554688 C 40.316406 39.410156 40.125 39.320312 39.914062 39.320312 L 39.898438 39.324219 L 39.898438 39.320312 Z M 40.703125 40.144531 C 40.703125 40.152344 40.703125 40.15625 40.703125 40.144531 " fill-opacity="1" fill-rule="nonzero"/></g><g clip-path="url(#6898fff2b4)"><path fill="#f41e1e" d="M 4.761719 44.074219 L 10.96875 44.074219 C 11.402344 44.074219 11.753906 44.425781 11.753906 44.859375 L 11.753906 47.320312 C 11.753906 47.753906 11.402344 48.109375 10.96875 48.109375 L 4.761719 48.109375 C 4.328125 48.109375 3.972656 47.753906 3.972656 47.320312 L 3.972656 44.859375 C 3.972656 44.425781 4.328125 44.074219 4.761719 44.074219 Z M 10.179688 45.648438 L 5.550781 45.648438 L 5.550781 46.53125 L 10.179688 46.53125 L 10.179688 45.648438 " fill-opacity="1" fill-rule="nonzero"/></g><g clip-path="url(#16f12e3fbc)"><path fill="#f41e1e" d="M 31.550781 44.074219 L 37.757812 44.074219 C 38.191406 44.074219 38.542969 44.425781 38.542969 44.859375 L 38.542969 47.320312 C 38.542969 47.753906 38.191406 48.109375 37.757812 48.109375 L 31.550781 48.109375 C 31.117188 48.109375 30.761719 47.753906 30.761719 47.320312 L 30.761719 44.859375 C 30.761719 44.425781 31.117188 44.074219 31.550781 44.074219 Z M 36.96875 45.648438 L 32.339844 45.648438 L 32.339844 46.53125 L 36.96875 46.53125 L 36.96875 45.648438 " fill-opacity="1" fill-rule="nonzero"/></g></svg>