<svg xmlns="http://www.w3.org/2000/svg" xmlns:xlink="http://www.w3.org/1999/xlink" width="68" zoomAndPan="magnify" viewBox="0 0 50.879997 52.499999" height="70" preserveAspectRatio="xMidYMid meet" version="1.0"><defs><clipPath id="2b9b97ee55"><path d="M 1.519531 0 L 49.066406 0 L 49.066406 52 L 1.519531 52 Z M 1.519531 0 " clip-rule="nonzero"/></clipPath></defs><g clip-path="url(#2b9b97ee55)"><path fill="#f41e1e" d="M 49.308594 28.949219 C 49.300781 29.09375 49.300781 29.234375 49.285156 29.378906 L 49.207031 30.230469 L 49.1875 30.445312 C 49.179688 30.515625 49.167969 30.585938 49.160156 30.65625 L 49.035156 31.503906 C 49.019531 31.644531 48.988281 31.785156 48.960938 31.925781 L 48.878906 32.347656 L 48.796875 32.765625 L 48.695312 33.179688 L 48.589844 33.597656 C 48.554688 33.734375 48.527344 33.875 48.484375 34.007812 L 48.234375 34.828125 C 48.199219 34.964844 48.148438 35.097656 48.101562 35.230469 L 47.8125 36.035156 C 47.761719 36.167969 47.707031 36.300781 47.652344 36.429688 L 47.488281 36.824219 C 47.433594 36.957031 47.386719 37.089844 47.320312 37.21875 L 46.957031 37.988281 C 46.445312 39.003906 45.878906 39.988281 45.230469 40.917969 C 44.578125 41.847656 43.867188 42.730469 43.101562 43.558594 C 42.320312 44.378906 41.488281 45.144531 40.609375 45.855469 C 39.722656 46.554688 38.789062 47.183594 37.816406 47.753906 L 37.078125 48.164062 C 36.957031 48.234375 36.832031 48.292969 36.703125 48.355469 L 36.328125 48.542969 L 35.949219 48.726562 L 35.175781 49.0625 C 35.046875 49.117188 34.917969 49.175781 34.785156 49.222656 L 33.996094 49.515625 C 33.867188 49.570312 33.730469 49.605469 33.597656 49.652344 L 33.199219 49.777344 C 33.066406 49.820312 32.933594 49.867188 32.796875 49.90625 L 32.390625 50.015625 L 31.984375 50.121094 C 31.851562 50.160156 31.714844 50.195312 31.578125 50.222656 L 30.757812 50.398438 C 30.621094 50.429688 30.480469 50.449219 30.34375 50.472656 L 29.515625 50.605469 L 29.097656 50.652344 C 28.820312 50.679688 28.542969 50.71875 28.265625 50.738281 L 27.429688 50.789062 L 27.21875 50.800781 C 27.148438 50.804688 27.082031 50.800781 27.011719 50.804688 L 26.589844 50.808594 C 26.035156 50.824219 25.476562 50.785156 24.917969 50.765625 C 24.640625 50.746094 24.363281 50.714844 24.085938 50.691406 C 23.949219 50.675781 23.808594 50.667969 23.671875 50.652344 L 23.257812 50.589844 L 22.84375 50.53125 C 22.707031 50.511719 22.570312 50.496094 22.433594 50.464844 L 21.613281 50.304688 C 21.476562 50.28125 21.34375 50.242188 21.207031 50.210938 L 20.804688 50.109375 L 20.398438 50.011719 L 19.601562 49.769531 C 19.46875 49.726562 19.335938 49.695312 19.207031 49.644531 L 18.421875 49.363281 C 18.289062 49.320312 18.164062 49.265625 18.035156 49.214844 L 17.652344 49.054688 L 17.265625 48.894531 L 16.515625 48.542969 C 16.390625 48.480469 16.261719 48.425781 16.144531 48.359375 L 15.410156 47.96875 C 14.449219 47.421875 13.519531 46.820312 12.644531 46.148438 C 11.773438 45.46875 10.949219 44.734375 10.175781 43.949219 C 9.417969 43.152344 8.710938 42.304688 8.066406 41.417969 C 7.425781 40.523438 6.859375 39.582031 6.351562 38.609375 L 5.988281 37.875 C 5.925781 37.753906 5.875 37.625 5.820312 37.5 L 5.660156 37.121094 L 5.496094 36.746094 L 5.351562 36.363281 L 5.210938 35.976562 C 5.160156 35.851562 5.113281 35.722656 5.074219 35.59375 L 4.824219 34.8125 C 4.777344 34.683594 4.75 34.546875 4.714844 34.417969 L 4.609375 34.023438 L 4.503906 33.625 L 4.332031 32.828125 C 4.304688 32.691406 4.273438 32.5625 4.253906 32.425781 L 4.125 31.617188 C 4.101562 31.484375 4.089844 31.347656 4.074219 31.214844 L 4.027344 30.808594 L 3.984375 30.402344 C 3.972656 30.265625 3.96875 30.128906 3.957031 29.996094 C 3.945312 29.722656 3.921875 29.453125 3.914062 29.179688 C 3.910156 28.636719 3.890625 28.089844 3.925781 27.546875 L 3.945312 27.140625 C 3.945312 27.074219 3.949219 27.007812 3.953125 26.9375 L 3.972656 26.734375 L 4.046875 25.925781 C 4.078125 25.65625 4.121094 25.386719 4.160156 25.121094 L 4.21875 24.71875 L 4.375 23.921875 C 4.402344 23.789062 4.421875 23.652344 4.457031 23.523438 L 4.65625 22.734375 C 4.683594 22.605469 4.726562 22.476562 4.765625 22.34375 L 5 21.570312 C 5.042969 21.441406 5.089844 21.316406 5.132812 21.1875 L 5.269531 20.804688 C 5.316406 20.679688 5.355469 20.550781 5.410156 20.425781 L 5.722656 19.679688 C 5.769531 19.554688 5.828125 19.433594 5.886719 19.308594 L 6.058594 18.945312 L 6.234375 18.578125 L 6.421875 18.222656 L 6.613281 17.867188 C 6.675781 17.746094 6.738281 17.628906 6.808594 17.511719 L 7.222656 16.820312 C 7.800781 15.910156 8.433594 15.039062 9.125 14.21875 C 9.828125 13.402344 10.582031 12.636719 11.382812 11.925781 C 12.195312 11.226562 13.050781 10.582031 13.945312 9.996094 C 14.84375 9.417969 15.785156 8.914062 16.753906 8.46875 L 17.488281 8.152344 C 17.605469 8.09375 17.734375 8.054688 17.859375 8.003906 L 18.230469 7.867188 C 18.355469 7.820312 18.480469 7.769531 18.605469 7.726562 L 18.984375 7.605469 L 19.367188 7.484375 C 19.492188 7.445312 19.617188 7.402344 19.746094 7.371094 L 20.515625 7.167969 C 20.644531 7.128906 20.777344 7.109375 20.90625 7.078125 L 21.292969 6.996094 L 21.683594 6.914062 L 22.078125 6.851562 L 22.46875 6.789062 C 22.601562 6.765625 22.730469 6.742188 22.863281 6.730469 L 23.652344 6.644531 C 23.71875 6.636719 23.785156 6.628906 23.851562 6.625 L 24.046875 6.613281 L 24.84375 6.566406 C 24.972656 6.554688 25.105469 6.5625 25.238281 6.558594 L 26.035156 6.550781 L 26.125 6.550781 C 26.136719 6.550781 26.144531 6.550781 26.152344 6.550781 L 25.015625 9.652344 L 32.269531 4.828125 L 25.015625 0 L 26.121094 3.015625 C 26.09375 3.015625 26.0625 3.011719 26.035156 3.011719 L 25.113281 3.050781 C 24.957031 3.058594 24.804688 3.058594 24.652344 3.074219 L 24.191406 3.113281 L 23.734375 3.15625 L 23.503906 3.179688 C 23.429688 3.1875 23.351562 3.199219 23.277344 3.207031 L 22.363281 3.339844 C 22.210938 3.355469 22.0625 3.390625 21.910156 3.417969 L 21.457031 3.507812 L 21.007812 3.59375 L 20.558594 3.703125 L 20.113281 3.816406 C 19.964844 3.851562 19.8125 3.882812 19.667969 3.929688 L 18.785156 4.195312 C 18.636719 4.238281 18.492188 4.289062 18.347656 4.339844 L 17.914062 4.496094 L 17.484375 4.648438 C 17.339844 4.703125 17.199219 4.765625 17.058594 4.824219 L 16.632812 4.996094 C 16.492188 5.058594 16.347656 5.109375 16.210938 5.179688 L 15.378906 5.570312 C 14.285156 6.117188 13.226562 6.730469 12.222656 7.421875 C 11.222656 8.125 10.269531 8.886719 9.378906 9.714844 C 8.492188 10.550781 7.667969 11.445312 6.90625 12.390625 C 6.152344 13.34375 5.46875 14.351562 4.855469 15.398438 L 4.414062 16.191406 C 4.335938 16.324219 4.273438 16.460938 4.207031 16.59375 L 4.003906 17.003906 L 3.804688 17.410156 L 3.625 17.828125 L 3.441406 18.242188 C 3.382812 18.382812 3.320312 18.519531 3.269531 18.664062 L 2.949219 19.511719 C 2.894531 19.652344 2.855469 19.796875 2.804688 19.941406 L 2.667969 20.371094 C 2.621094 20.515625 2.574219 20.660156 2.53125 20.804688 L 2.296875 21.679688 C 2.257812 21.824219 2.214844 21.972656 2.1875 22.121094 L 1.996094 23.003906 C 1.960938 23.152344 1.941406 23.300781 1.917969 23.449219 L 1.84375 23.894531 L 1.773438 24.34375 L 1.722656 24.792969 C 1.691406 25.089844 1.648438 25.390625 1.625 25.6875 L 1.570312 26.589844 L 1.558594 26.816406 C 1.554688 26.890625 1.554688 26.964844 1.554688 27.039062 L 1.550781 27.492188 C 1.53125 28.09375 1.570312 28.691406 1.59375 29.292969 C 1.613281 29.589844 1.644531 29.890625 1.671875 30.1875 C 1.6875 30.339844 1.699219 30.488281 1.714844 30.636719 L 1.777344 31.082031 L 1.84375 31.527344 C 1.863281 31.675781 1.882812 31.824219 1.914062 31.972656 L 2.085938 32.855469 C 2.113281 33.003906 2.152344 33.148438 2.1875 33.292969 L 2.292969 33.730469 L 2.402344 34.164062 L 2.53125 34.597656 L 2.660156 35.027344 C 2.703125 35.167969 2.742188 35.3125 2.792969 35.453125 L 3.09375 36.300781 C 3.140625 36.441406 3.199219 36.578125 3.257812 36.71875 L 3.429688 37.132812 L 3.597656 37.546875 L 3.980469 38.359375 C 4.042969 38.492188 4.105469 38.628906 4.175781 38.761719 L 4.597656 39.550781 C 5.183594 40.589844 5.832031 41.589844 6.554688 42.539062 C 7.285156 43.476562 8.078125 44.367188 8.925781 45.199219 C 9.785156 46.019531 10.695312 46.78125 11.652344 47.480469 C 12.617188 48.171875 13.632812 48.785156 14.679688 49.332031 L 15.476562 49.726562 C 15.605469 49.792969 15.742188 49.847656 15.878906 49.90625 L 16.285156 50.085938 L 16.691406 50.257812 L 17.519531 50.570312 C 17.660156 50.625 17.796875 50.675781 17.9375 50.71875 L 18.78125 50.988281 C 18.917969 51.039062 19.0625 51.070312 19.207031 51.109375 L 20.058594 51.335938 L 20.492188 51.429688 L 20.921875 51.519531 C 21.066406 51.550781 21.210938 51.585938 21.355469 51.605469 L 22.226562 51.746094 C 22.371094 51.773438 22.519531 51.789062 22.664062 51.804688 L 23.105469 51.851562 L 23.542969 51.902344 C 23.6875 51.914062 23.835938 51.921875 23.980469 51.929688 C 24.273438 51.945312 24.566406 51.96875 24.859375 51.980469 C 25.449219 51.984375 26.035156 52.003906 26.621094 51.96875 L 27.058594 51.949219 C 27.132812 51.945312 27.207031 51.945312 27.277344 51.941406 L 27.496094 51.917969 L 28.371094 51.839844 C 28.664062 51.808594 28.953125 51.757812 29.242188 51.71875 L 29.675781 51.65625 L 30.109375 51.574219 L 30.539062 51.488281 C 30.679688 51.460938 30.828125 51.4375 30.96875 51.398438 L 31.820312 51.1875 C 31.960938 51.15625 32.101562 51.113281 32.242188 51.070312 L 32.660156 50.945312 L 33.078125 50.816406 C 33.21875 50.769531 33.355469 50.71875 33.492188 50.671875 L 33.90625 50.523438 C 34.042969 50.472656 34.183594 50.429688 34.316406 50.371094 L 35.125 50.039062 C 35.261719 49.984375 35.390625 49.921875 35.523438 49.859375 L 35.917969 49.671875 L 36.3125 49.488281 L 36.699219 49.28125 L 37.085938 49.078125 C 37.214844 49.007812 37.34375 48.941406 37.46875 48.867188 L 38.214844 48.417969 C 39.199219 47.796875 40.144531 47.113281 41.03125 46.367188 C 41.910156 45.609375 42.738281 44.796875 43.507812 43.929688 C 44.269531 43.058594 44.964844 42.132812 45.597656 41.164062 C 46.226562 40.195312 46.773438 39.175781 47.257812 38.128906 L 47.601562 37.335938 C 47.660156 37.207031 47.707031 37.070312 47.757812 36.933594 L 47.910156 36.53125 C 47.960938 36.394531 48.011719 36.261719 48.0625 36.125 L 48.191406 35.714844 L 48.324219 35.304688 C 48.367188 35.167969 48.414062 35.03125 48.449219 34.890625 L 48.671875 34.058594 C 48.710938 33.921875 48.734375 33.777344 48.765625 33.636719 L 48.855469 33.21875 L 48.945312 32.796875 L 49.015625 32.371094 L 49.082031 31.945312 C 49.105469 31.804688 49.132812 31.664062 49.144531 31.519531 L 49.242188 30.664062 C 49.246094 30.59375 49.257812 30.523438 49.261719 30.453125 L 49.277344 30.238281 L 49.300781 29.808594 L 49.328125 29.378906 C 49.335938 29.238281 49.332031 29.09375 49.335938 28.949219 L 49.34375 28.09375 L 49.308594 28.949219 " fill-opacity="1" fill-rule="nonzero"/></g><path fill="#f41e1e" d="M 26.652344 13.363281 L 26.652344 10.972656 C 26.652344 10.609375 26.355469 10.3125 25.988281 10.3125 C 25.621094 10.3125 25.324219 10.609375 25.324219 10.972656 L 25.324219 13.363281 C 25.324219 13.730469 25.621094 14.027344 25.988281 14.027344 C 26.355469 14.027344 26.652344 13.730469 26.652344 13.363281 " fill-opacity="1" fill-rule="nonzero"/><path fill="#f41e1e" d="M 18.632812 15.800781 C 18.707031 15.800781 18.78125 15.78125 18.851562 15.742188 C 19.0625 15.621094 19.136719 15.347656 19.015625 15.136719 L 17.820312 13.070312 C 17.699219 12.855469 17.425781 12.785156 17.214844 12.90625 C 17.003906 13.027344 16.929688 13.300781 17.054688 13.511719 L 18.246094 15.578125 C 18.328125 15.722656 18.476562 15.800781 18.632812 15.800781 " fill-opacity="1" fill-rule="nonzero"/><path fill="#f41e1e" d="M 13.035156 21.148438 C 13.105469 21.1875 13.179688 21.207031 13.253906 21.207031 C 13.410156 21.207031 13.558594 21.128906 13.640625 20.988281 C 13.761719 20.777344 13.6875 20.503906 13.476562 20.382812 L 11.410156 19.1875 C 11.195312 19.066406 10.925781 19.140625 10.804688 19.351562 C 10.683594 19.5625 10.753906 19.832031 10.964844 19.953125 L 13.035156 21.148438 " fill-opacity="1" fill-rule="nonzero"/><path fill="#f41e1e" d="M 8.253906 28.136719 C 8.253906 28.503906 8.550781 28.800781 8.917969 28.800781 L 11.304688 28.800781 C 11.671875 28.800781 11.96875 28.503906 11.96875 28.136719 C 11.96875 27.769531 11.671875 27.472656 11.304688 27.472656 L 8.917969 27.472656 C 8.550781 27.472656 8.253906 27.769531 8.253906 28.136719 " fill-opacity="1" fill-rule="nonzero"/><path fill="#f41e1e" d="M 11.230469 37.132812 C 11.308594 37.132812 11.382812 37.113281 11.453125 37.070312 L 13.519531 35.878906 C 13.734375 35.753906 13.804688 35.484375 13.683594 35.273438 C 13.5625 35.0625 13.289062 34.988281 13.078125 35.113281 L 11.011719 36.304688 C 10.800781 36.429688 10.726562 36.699219 10.847656 36.910156 C 10.929688 37.050781 11.078125 37.132812 11.230469 37.132812 " fill-opacity="1" fill-rule="nonzero"/><path fill="#f41e1e" d="M 18.324219 40.648438 L 17.128906 42.71875 C 17.007812 42.929688 17.082031 43.199219 17.292969 43.320312 C 17.363281 43.363281 17.4375 43.378906 17.511719 43.378906 C 17.664062 43.378906 17.816406 43.300781 17.894531 43.160156 L 19.089844 41.089844 C 19.210938 40.878906 19.140625 40.609375 18.929688 40.488281 C 18.71875 40.363281 18.445312 40.4375 18.324219 40.648438 " fill-opacity="1" fill-rule="nonzero"/><path fill="#f41e1e" d="M 26.078125 45.871094 C 26.445312 45.871094 26.742188 45.574219 26.742188 45.210938 L 26.742188 42.820312 C 26.742188 42.453125 26.445312 42.15625 26.078125 42.15625 C 25.710938 42.15625 25.414062 42.453125 25.414062 42.820312 L 25.414062 45.210938 C 25.414062 45.574219 25.710938 45.871094 26.078125 45.871094 " fill-opacity="1" fill-rule="nonzero"/><path fill="#f41e1e" d="M 33.214844 40.441406 C 33.003906 40.566406 32.929688 40.835938 33.054688 41.046875 L 34.246094 43.113281 C 34.328125 43.257812 34.476562 43.335938 34.632812 43.335938 C 34.707031 43.335938 34.78125 43.316406 34.851562 43.277344 C 35.0625 43.15625 35.136719 42.882812 35.015625 42.671875 L 33.820312 40.605469 C 33.699219 40.394531 33.425781 40.320312 33.214844 40.441406 " fill-opacity="1" fill-rule="nonzero"/><path fill="#f41e1e" d="M 39.03125 35.035156 C 38.820312 34.914062 38.550781 34.984375 38.429688 35.195312 C 38.304688 35.410156 38.378906 35.679688 38.589844 35.800781 L 40.660156 36.996094 C 40.726562 37.035156 40.804688 37.054688 40.878906 37.054688 C 41.03125 37.054688 41.179688 36.976562 41.261719 36.832031 C 41.386719 36.621094 41.3125 36.351562 41.101562 36.230469 L 39.03125 35.035156 " fill-opacity="1" fill-rule="nonzero"/><path fill="#f41e1e" d="M 40.097656 28.046875 C 40.097656 28.414062 40.394531 28.710938 40.761719 28.710938 L 43.152344 28.710938 C 43.519531 28.710938 43.816406 28.414062 43.816406 28.046875 C 43.816406 27.679688 43.519531 27.382812 43.152344 27.382812 L 40.761719 27.382812 C 40.394531 27.382812 40.097656 27.679688 40.097656 28.046875 " fill-opacity="1" fill-rule="nonzero"/><path fill="#f41e1e" d="M 38.769531 21.132812 C 38.84375 21.132812 38.917969 21.113281 38.988281 21.070312 L 41.058594 19.878906 C 41.269531 19.757812 41.339844 19.484375 41.21875 19.273438 C 41.097656 19.0625 40.828125 18.988281 40.613281 19.113281 L 38.546875 20.304688 C 38.335938 20.429688 38.261719 20.699219 38.382812 20.910156 C 38.464844 21.050781 38.613281 21.132812 38.769531 21.132812 " fill-opacity="1" fill-rule="nonzero"/><path fill="#f41e1e" d="M 33.140625 15.695312 C 33.207031 15.738281 33.285156 15.757812 33.359375 15.757812 C 33.511719 15.757812 33.660156 15.675781 33.742188 15.535156 L 34.9375 13.46875 C 35.058594 13.253906 34.988281 12.984375 34.773438 12.863281 C 34.5625 12.742188 34.292969 12.8125 34.171875 13.023438 L 32.976562 15.09375 C 32.855469 15.304688 32.925781 15.574219 33.140625 15.695312 " fill-opacity="1" fill-rule="nonzero"/><path fill="#f41e1e" d="M 20.421875 32.132812 L 17.0625 32.132812 C 17.152344 31.207031 17.820312 30.074219 18.640625 28.972656 C 19.605469 27.671875 20.199219 26.894531 20.199219 25.054688 C 20.199219 23.234375 19.632812 22.003906 17.648438 22.003906 C 15.488281 22.003906 15.058594 23.503906 15.058594 24.835938 L 15.058594 25.492188 L 16.746094 25.492188 L 16.746094 24.886719 C 16.746094 23.972656 16.976562 23.535156 17.566406 23.535156 C 18.234375 23.535156 18.363281 24 18.363281 25.164062 C 18.363281 26.449219 18.027344 26.871094 17.074219 28.214844 C 15.898438 29.878906 15.035156 31.296875 15.019531 33.488281 L 15.019531 33.707031 L 20.421875 33.707031 L 20.421875 32.132812 " fill-opacity="1" fill-rule="nonzero"/><path fill="#f41e1e" d="M 22.460938 29.328125 C 23.03125 27.4375 23.542969 25.6875 24.042969 23.792969 L 24.058594 23.792969 C 24.039062 24.945312 23.992188 26.121094 23.992188 27.277344 L 23.992188 29.328125 Z M 25.667969 33.707031 L 25.667969 30.828125 L 26.535156 30.828125 L 26.535156 29.328125 L 25.667969 29.328125 L 25.667969 22.148438 L 23.210938 22.148438 L 20.734375 29.46875 L 20.734375 30.828125 L 23.992188 30.828125 L 23.992188 33.707031 L 25.667969 33.707031 " fill-opacity="1" fill-rule="nonzero"/><path fill="#f41e1e" d="M 28.316406 34.238281 L 31.074219 21.828125 L 29.699219 21.828125 L 26.925781 34.238281 L 28.316406 34.238281 " fill-opacity="1" fill-rule="nonzero"/><path fill="#f41e1e" d="M 36.597656 22.148438 L 31.402344 22.148438 L 31.402344 23.757812 L 34.746094 23.757812 C 33.515625 26.066406 32.25 29.878906 31.832031 33.707031 L 33.699219 33.707031 C 34.179688 29.625 35.253906 26.117188 36.597656 23.535156 L 36.597656 22.148438 " fill-opacity="1" fill-rule="nonzero"/></svg>